<svg width="20" height="34" viewBox="0 0 20 34" fill="none" xmlns="http://www.w3.org/2000/svg">
<path d="M7.73477 16.7957L19.069 5.46153C19.6653 4.86165 20 4.05016 20 3.2043C20 2.35845 19.6653 1.54696 19.069 0.947071C18.7713 0.646977 18.4172 0.408784 18.027 0.246236C17.6369 0.0836873 17.2184 0 16.7957 0C16.373 0 15.9546 0.0836873 15.5644 0.246236C15.1742 0.408784 14.8201 0.646977 14.5225 0.947071L0.947071 14.5225C0.646977 14.8201 0.408786 15.1742 0.246237 15.5644C0.0836888 15.9546 0 16.373 0 16.7957C0 17.2184 0.0836888 17.6369 0.246237 18.027C0.408786 18.4172 0.646977 18.7713 0.947071 19.069L14.5225 32.8045C14.8216 33.1012 15.1765 33.336 15.5665 33.4953C15.9566 33.6546 16.3743 33.7354 16.7957 33.733C17.2171 33.7354 17.6348 33.6546 18.0249 33.4953C18.415 33.336 18.7698 33.1012 19.069 32.8045C19.6653 32.2046 20 31.3931 20 30.5472C20 29.7014 19.6653 28.8899 19.069 28.29L7.73477 16.7957Z" fill="#36CECC"/>
</svg>
