<svg width="20" height="34" viewBox="0 0 20 34" fill="none" xmlns="http://www.w3.org/2000/svg">
<path d="M19.0529 14.5225L5.47752 0.947071C5.17988 0.646977 4.82576 0.408784 4.4356 0.246236C4.04544 0.0836873 3.62695 0 3.20428 0C2.78162 0 2.36313 0.0836873 1.97297 0.246236C1.5828 0.408784 1.22869 0.646977 0.931044 0.947071C0.334715 1.54696 0 2.35845 0 3.2043C0 4.05016 0.334715 4.86165 0.931044 5.46153L12.2652 16.7957L0.931044 28.1299C0.334715 28.7298 0 29.5413 0 30.3871C0 31.233 0.334715 32.0445 0.931044 32.6444C1.23022 32.9411 1.58502 33.1759 1.97511 33.3352C2.36521 33.4945 2.78291 33.5753 3.20428 33.5729C3.62566 33.5753 4.04336 33.4945 4.43345 33.3352C4.82355 33.1759 5.17835 32.9411 5.47752 32.6444L19.0529 19.069C19.353 18.7713 19.5912 18.4172 19.7538 18.027C19.9163 17.6369 20 17.2184 20 16.7957C20 16.373 19.9163 15.9546 19.7538 15.5644C19.5912 15.1742 19.353 14.8201 19.0529 14.5225Z" fill="#36CECC"/>
</svg>
